# xmcd
#
# Track frame offsets:
#	150
#	14823
#	28728
#	42731
#
# Disc length: 783 seconds
#
# Revision: 0
# Processed by: cddbd v1.5.2PL0 Copyright (c) Steve Scherf et al.
# Submitted via: audiograbber 1.83.01
#
DISCID=35030d04
DTITLE=Granstein Echo - 30 Jahre CD 1
DYEAR=2012
DGENRE=
TTITLE0=Alles was ich habe
TTITLE1=Ganz nah dran
TTITLE2=Liebe öffnet alle Herzen
TTITLE3=Wo du nicht bist (kann ich nicht sein)
EXTD=
EXTT0=
EXTT1=
EXTT2=
EXTT3=
PLAYORDER=
